<?xml version="1.0" encoding="utf-8"?>
<!-- Generator: Adobe Illustrator 16.0.0, SVG Export Plug-In . SVG Version: 6.00 Build 0)  -->
<!DOCTYPE svg PUBLIC "-//W3C//DTD SVG 1.1//EN" "http://www.w3.org/Graphics/SVG/1.1/DTD/svg11.dtd">
<svg version="1.1" xmlns="http://www.w3.org/2000/svg" xmlns:xlink="http://www.w3.org/1999/xlink" x="0px" y="0px" width="1084px"
	 height="646.174px" viewBox="0 0 1084 646.174" enable-background="new 0 0 1084 646.174" xml:space="preserve">
<g id="圖層_1">
</g>
<g id="程式設計">
	<g id="XMLID_3_">
		<g>
			<path fill="#7D3284" d="M1045.679,339.627c15.283,48.986,6.741,149.698-0.216,198.467
				c-10.021,70.397-116.355,49.022-153.339,49.022c-157.087,0-46.427,1.766-203.55,1.766c-80.526,0-159.754,0-240.316,0
				c-21.123,0-43.543-1.298-64.702,0c-2.704,0.252-5.046,0.685-7.029,1.298c1.766-0.865,3.641-1.694,5.623-2.415
				c19.573-7.246,42.39-11.787,63.44-11.787c24.187,0,47.04-0.072,71.226,0c31.396,0.036,76.489-1.226,108.534,0
				c37.956,1.442,68.559-0.685,103.848-0.685c35.18,0,55.474-1.153,90.546-1.333c25.413-0.144,56.016,0.324,87.88,0.685
				c21.916,0.216,34.315,1.333,56.592,1.333c20.113,0,37.956,0.036,55.258-10.85
				C1037.244,553.955,1045.679,523.821,1045.679,339.627z"/>
			<path fill="#8957A1" d="M1045.679,339.627c0,184.193-8.435,214.328-26.205,225.502c-17.302,10.886-35.145,10.85-55.258,10.85
				c-22.276,0-34.676-1.118-56.592-1.333c-31.864-0.361-62.467-0.829-87.88-0.685c-35.072,0.18-55.366,1.333-90.546,1.333
				c-35.289,0-65.892,2.127-103.848,0.685c-32.045-1.226-77.138,0.036-108.534,0c-24.187-0.072-47.04,0-71.226,0
				c-21.051,0-43.868,4.542-63.44,11.787c-1.982,0.721-3.857,1.55-5.623,2.415c-3.749,1.081-6.344,2.703-8.291,4.65
				c0,0-0.036,0,0,0.036c-9.156,5.768-17.41,12.544-30.495,17.05c-23.286,8.002-88.601,4.686-124.502,4.686l-4.109,0.433
				c-2.451-2.92-4.866-6.308-7.39-9.48l-0.036-0.036c-7.425-12.94-7.317-24.079-23.069-27.575
				c-11.354-2.487-20.798-1.91-37.956-0.072c-17.987,1.91-19.933,1.658-39.938,0.432c-9.264-0.577-21.051-2.595-34.135-6.632
				c-6.236-1.91-6.344-1.406-19.717-8.542c-10.562-14.526-7.93-27.719-7.93-44.877c0-33.018-1.334-67.37,0-100.351
				c1.297-32.838,4.974-67.406,30.242-89.357c22.997-19.969,76.994-21.339,97.143-19.789c20.582,1.586,19.429,12.76,30.026,23.357
				c14.382,14.455,36.154,13.193,57.096,13.193c24.944,0,32.982-1.37,58.105-5.299c12.905-2.019,18.816-1.226,27.395-10.309
				c10.777-11.462,7.93-35.901,29.377-37.163c31.576-1.838,67.189,4.073,97.215,6.849c34.676,3.208,79.409,0.685,114.517,0.685
				c37.307,0,71.767,1.586,109.075,1.622c43.903,0,54.32-1.442,107.452,0.324C1036.56,294.174,1034,302.212,1045.679,339.627z"/>
			<path fill="#7D3284" d="M368.236,594.867c-7.642,7.642-5.407,20.402-22.493,27.035c-22.42,9.228-110.66,13.877-129.188,1.982
				c-2.595-1.478-5.046-3.965-7.425-6.849l4.109-0.433c35.901,0,101.216,3.316,124.502-4.686
				C350.826,607.411,359.081,600.634,368.236,594.867z"/>
			<path fill="#7D3284" d="M178.636,579.944c15.752,3.497,15.644,14.635,23.069,27.575c-3.712-4.722-7.678-9.012-12.219-10.706
				c-6.597-2.631-15.139-4.65-23.069-4.65c-21.123-2.631-42.966,0.685-64.089,0.685c-22.42,0-42.246-9.228-55.438-27.719
				c13.373,7.137,13.481,6.632,19.717,8.542c13.084,4.037,24.872,6.056,34.135,6.632c20.005,1.226,21.952,1.478,39.938-0.432
				C157.837,578.034,167.282,577.457,178.636,579.944z"/>
		</g>
		<g>
		</g>
	</g>
	<g>
		<path fill="#FFFFFF" stroke="#FFFFFF" stroke-width="10" stroke-miterlimit="10" d="M181.758,376.97
			c2.816-3.751,5.632-3.751,8.448,0v14.081h28.161c3.751,2.816,3.751,5.632,0,8.448h-28.161v11.264c0,6.578,2.816,9.394,8.448,8.448
			h8.448c10.318,0,15.015,5.17,14.08,15.488v49.281h35.201l1.408-25.345h-28.161c-4.697-2.816-4.697-5.632,0-8.448h28.161
			l1.408-22.528h-29.569c-4.697-2.816-4.697-5.632,0-8.448H259.2v-15.488c0.935-6.567-2.354-9.856-9.856-9.856h-22.528
			c-3.762-1.87-3.762-4.686,0-8.448h25.345c11.264,0,16.423,5.17,15.488,15.488l-2.816,83.074h15.489
			c3.751,2.816,3.751,5.632,0,8.448h-157.7c-4.697-2.816-4.697-5.632,0-8.448h15.488l-2.816-78.85
			c0-9.383,3.278-15.015,9.856-16.896c14.08-2.816,22.99-5.159,26.752-7.04c5.632,1.881,6.094,4.697,1.408,8.448
			c-5.632,1.881-13.619,3.762-23.937,5.632c-3.762,1.881-5.632,5.17-5.632,9.856v14.081h26.753c4.686,3.762,4.686,6.578,0,8.448
			h-26.753l1.408,22.528h25.345c4.686,2.816,4.686,5.632,0,8.448h-25.345l1.408,25.345h35.201v-47.873
			c3.751-3.751,6.567-3.751,8.448,0v47.873h22.528v-47.873c0.935-5.632-1.881-8.448-8.448-8.448h-8.448
			c-9.394,0.946-14.08-4.686-14.08-16.896V376.97z M170.494,498.061c4.686-1.87,7.04,0,7.04,5.632
			c-15.961,15.951-32.385,27.688-49.281,35.201c-4.697,0-5.632-2.816-2.816-8.448C141.387,522.933,156.414,512.141,170.494,498.061z
			 M223.999,503.693c-1.881-4.686,0-7.04,5.632-7.04c15.016,9.394,30.504,21.121,46.465,35.201c0.935,4.686-0.946,7.04-5.632,7.04
			C254.503,525.749,239.015,514.022,223.999,503.693z"/>
		<path fill="#FFFFFF" stroke="#FFFFFF" stroke-width="10" stroke-miterlimit="10" d="M352.13,376.97
			c4.686,0,6.094,2.354,4.224,7.04c-4.697,2.816-10.802,5.632-18.304,8.448v32.385h19.712c3.751,2.816,3.751,5.632,0,8.448H338.05
			v4.224c9.383,12.21,16.896,23.475,22.528,33.793c0,4.697-2.354,6.105-7.04,4.224c-3.762-6.567-8.921-14.542-15.488-23.937v85.89
			c-2.816,4.686-5.632,4.686-8.448,0v-83.074c-5.632,14.081-12.672,27.226-21.121,39.425c-4.697,3.762-7.513,2.816-8.448-2.816
			c13.134-19.712,22.991-38.952,29.569-57.729h-25.345c-3.762-2.816-3.762-5.632,0-8.448h25.345v-29.568
			c-7.513,1.881-14.554,3.289-21.121,4.224c-4.697-1.87-5.17-4.687-1.408-8.448C323.97,388.234,338.985,383.548,352.13,376.97z
			 M363.395,445.963h95.747c4.686,2.816,4.686,5.632,0,8.448h-45.057v30.977h39.425c4.687,2.816,4.687,5.632,0,8.448h-39.425v33.792
			h47.873c3.751,2.816,3.751,5.632,0,8.448H360.579c-4.697-2.816-4.697-5.632,0-8.448h45.057v-33.792h-39.425
			c-4.697-2.816-4.697-5.632,0-8.448h39.425v-30.977h-42.241C358.698,451.596,358.698,448.78,363.395,445.963z M380.291,381.194
			h61.954c10.318,0,15.016,4.697,14.081,14.081v22.528c0.935,10.329-3.762,15.026-14.081,14.081h-61.954
			c-9.394,0.946-14.08-3.751-14.08-14.081v-22.528C366.211,385.891,370.897,381.194,380.291,381.194z M439.429,389.642h-56.321
			c-5.632,0-8.448,2.816-8.448,8.448v16.896c0,6.578,2.816,9.394,8.448,8.448h56.321c6.567,0.946,9.383-1.87,8.448-8.448V398.09
			C448.812,392.458,445.996,389.642,439.429,389.642z"/>
		<path fill="#FFFFFF" stroke="#FFFFFF" stroke-width="10" stroke-miterlimit="10" d="M488.71,445.963h78.85
			c3.751,2.816,3.751,5.632,0,8.448h-33.793v61.954c17.832-4.686,31.438-8.91,40.833-12.672c4.686,1.881,5.632,4.697,2.816,8.448
			c-32.858,11.264-63.361,19.239-91.522,23.937c-4.697-0.946-5.632-3.762-2.816-8.448c17.832-2.816,31.912-6.105,42.241-9.856
			v-63.362H488.71C484.948,451.596,484.948,448.78,488.71,445.963z M583.048,381.194l1.408,28.161h53.506
			c3.751,2.816,3.751,5.632,0,8.448h-52.098c10.318,69.467,23.937,107.011,40.833,112.643c5.632,1.87,8.448-11.265,8.448-39.425
			c3.751-2.816,6.567-2.343,8.448,1.408c0.935,32.847-4.224,48.808-15.488,47.873c-22.528-0.946-39.425-41.768-50.689-122.499
			h-91.522c-3.762-2.816-3.762-5.632,0-8.448h90.114l-1.408-28.161C577.416,377.443,580.232,377.443,583.048,381.194z
			 M594.313,376.97c12.199,5.632,23.937,12.672,35.201,21.121c2.815,5.632,1.408,8.448-4.225,8.448
			c-12.21-8.448-23.937-15.488-35.2-21.121C588.207,380.732,589.615,377.916,594.313,376.97z"/>
		<path fill="#FFFFFF" stroke="#FFFFFF" stroke-width="10" stroke-miterlimit="10" d="M661.898,406.539h66.178
			c3.751,2.816,3.751,5.632,0,8.448h-66.178C657.201,412.17,657.201,409.354,661.898,406.539z M681.61,474.124h29.569
			c11.264,0,16.423,5.17,15.488,15.489v30.977c0.935,11.264-4.225,16.423-15.488,15.488h-28.161
			c-10.329,0.935-15.488-4.224-15.488-15.488v-30.977C667.53,479.294,672.217,474.124,681.61,474.124z M671.755,451.596h50.688
			c3.752,2.816,3.752,5.632,0,8.448h-50.688C667.992,456.293,667.992,453.477,671.755,451.596z M671.755,429.067h50.688
			c2.816,2.816,2.816,5.632,0,8.448h-50.688C668.938,434.699,668.938,431.883,671.755,429.067z M709.771,482.572h-25.345
			c-5.632,0-8.448,2.816-8.448,8.448v26.753c0,7.502,3.278,10.791,9.856,9.856h23.937c6.567,0.935,9.383-1.881,8.448-8.448v-28.161
			C719.154,485.389,716.339,482.572,709.771,482.572z M687.243,375.562c6.566,6.579,12.199,13.146,16.896,19.713
			c0,6.578-2.354,8.448-7.041,5.632c-4.696-6.567-10.329-13.134-16.896-19.712C679.257,375.562,681.61,373.692,687.243,375.562z
			 M737.932,448.78h61.954c10.318,0,13.607,5.632,9.856,16.896c-5.633,14.081-14.554,27.699-26.753,40.833
			c12.199,11.265,25.807,20.175,40.833,26.753c2.816,4.686,1.408,7.04-4.224,7.04c-13.146-3.762-27.699-13.145-43.649-28.161
			c-14.08,13.134-28.634,22.529-43.649,28.161c-4.697,0-6.104-2.354-4.224-7.04c17.831-8.448,31.438-17.832,40.833-28.161
			c-12.211-14.081-20.659-30.031-25.345-47.874h-5.633C734.17,455.358,734.17,452.542,737.932,448.78z M761.869,378.378h22.528
			c10.318,0,15.016,4.697,14.08,14.08v30.977c0,6.578,2.816,9.394,8.448,8.448h9.856c4.686,2.816,4.686,5.632,0,8.448h-12.673
			c-9.394,0.946-14.08-4.224-14.08-15.489v-29.568c0.936-5.632-1.881-8.448-8.448-8.448h-16.896c-5.632,0-8.448,2.816-8.448,8.448
			v11.264c0.936,15.961-3.762,28.161-14.08,36.609c-5.632,1.881-7.986,0-7.04-5.632c9.383-7.502,13.607-17.832,12.672-30.977
			v-12.672C747.788,383.548,752.475,378.378,761.869,378.378z M797.069,457.228h-43.648c2.815,13.146,10.317,27.226,22.528,42.241
			c10.318-10.318,18.305-22.056,23.937-35.201C801.756,459.582,800.82,457.228,797.069,457.228z"/>
		<path fill="#FFFFFF" stroke="#FFFFFF" stroke-width="10" stroke-miterlimit="10" d="M840.719,403.723h76.034
			c4.686,2.816,4.686,5.632,0,8.448h-76.034C836.957,409.354,836.957,406.539,840.719,403.723z M853.391,426.251h56.322
			c4.686,2.816,4.686,5.632,0,8.448h-56.322C848.694,431.883,848.694,429.067,853.391,426.251z M853.391,448.78h56.322
			c4.686,2.816,4.686,5.632,0,8.448h-56.322C848.694,454.412,848.694,451.596,853.391,448.78z M866.063,471.308h28.16
			c11.265,0,16.424,5.632,15.489,16.896v35.201c0.935,9.383-4.225,13.607-15.489,12.672h-28.16
			c-10.329,0.935-15.488-3.762-15.488-14.08v-35.201C850.575,476.478,855.734,471.308,866.063,471.308z M891.408,479.756h-23.937
			c-5.633,0-8.448,2.816-8.448,8.448v30.977c0,6.567,2.815,9.383,8.448,8.448h25.345c6.566,0.935,9.383-0.946,8.448-5.632v-33.793
			C902.199,482.572,898.91,479.756,891.408,479.756z M867.472,375.562c8.448,6.579,16.423,13.146,23.937,19.713
			c1.87,5.632,0,7.513-5.633,5.632c-9.394-6.567-17.842-13.134-25.344-19.712C859.485,375.562,861.839,373.692,867.472,375.562z
			 M957.586,378.378c2.815-4.686,5.632-4.686,8.448,0v56.321h38.017c3.751,2.816,3.751,5.632,0,8.448h-38.017v94.338
			c-2.816,4.686-5.633,4.686-8.448,0v-94.338h-40.833c-4.697-2.816-4.697-5.632,0-8.448h40.833V378.378z"/>
	</g>
	<g>
		<path stroke="#000000" stroke-width="2" stroke-miterlimit="10" d="M181.758,376.963c2.816-3.751,5.632-3.751,8.448,0v14.081
			h28.161c3.751,2.816,3.751,5.632,0,8.448h-28.161v11.264c0,6.578,2.816,9.394,8.448,8.448h8.448
			c10.318,0,15.015,5.17,14.08,15.488v49.281h35.201l1.408-25.345h-28.161c-4.697-2.816-4.697-5.632,0-8.448h28.161l1.408-22.528
			h-29.569c-4.697-2.816-4.697-5.632,0-8.448H259.2v-15.488c0.935-6.567-2.354-9.856-9.856-9.856h-22.528
			c-3.762-1.87-3.762-4.686,0-8.448h25.345c11.264,0,16.423,5.17,15.488,15.488l-2.816,83.074h15.489
			c3.751,2.816,3.751,5.632,0,8.448h-157.7c-4.697-2.816-4.697-5.632,0-8.448h15.488l-2.816-78.85
			c0-9.383,3.278-15.015,9.856-16.896c14.08-2.816,22.99-5.159,26.752-7.04c5.632,1.881,6.094,4.697,1.408,8.448
			c-5.632,1.881-13.619,3.762-23.937,5.632c-3.762,1.881-5.632,5.17-5.632,9.856v14.081h26.753c4.686,3.762,4.686,6.578,0,8.448
			h-26.753l1.408,22.528h25.345c4.686,2.816,4.686,5.632,0,8.448h-25.345l1.408,25.345h35.201v-47.873
			c3.751-3.751,6.567-3.751,8.448,0v47.873h22.528v-47.873c0.935-5.632-1.881-8.448-8.448-8.448h-8.448
			c-9.394,0.946-14.08-4.686-14.08-16.896V376.963z M170.494,498.054c4.686-1.87,7.04,0,7.04,5.632
			c-15.961,15.951-32.385,27.688-49.281,35.201c-4.697,0-5.632-2.816-2.816-8.448C141.387,522.926,156.414,512.134,170.494,498.054z
			 M223.999,503.686c-1.881-4.686,0-7.04,5.632-7.04c15.016,9.394,30.504,21.121,46.465,35.201c0.935,4.686-0.946,7.04-5.632,7.04
			C254.503,525.742,239.015,514.015,223.999,503.686z"/>
		<path stroke="#000000" stroke-width="2" stroke-miterlimit="10" d="M352.13,376.963c4.686,0,6.094,2.354,4.224,7.04
			c-4.697,2.816-10.802,5.632-18.304,8.448v32.385h19.712c3.751,2.816,3.751,5.632,0,8.448H338.05v4.224
			c9.383,12.21,16.896,23.475,22.528,33.793c0,4.697-2.354,6.105-7.04,4.224c-3.762-6.567-8.921-14.542-15.488-23.937v85.89
			c-2.816,4.686-5.632,4.686-8.448,0v-83.074c-5.632,14.081-12.672,27.226-21.121,39.425c-4.697,3.762-7.513,2.816-8.448-2.816
			c13.134-19.712,22.991-38.952,29.569-57.729h-25.345c-3.762-2.816-3.762-5.632,0-8.448h25.345v-29.568
			c-7.513,1.881-14.554,3.289-21.121,4.224c-4.697-1.87-5.17-4.687-1.408-8.448C323.97,388.227,338.985,383.541,352.13,376.963z
			 M363.395,445.957h95.747c4.686,2.816,4.686,5.632,0,8.448h-45.057v30.977h39.425c4.687,2.816,4.687,5.632,0,8.448h-39.425v33.792
			h47.873c3.751,2.816,3.751,5.632,0,8.448H360.579c-4.697-2.816-4.697-5.632,0-8.448h45.057V493.83h-39.425
			c-4.697-2.816-4.697-5.632,0-8.448h39.425v-30.977h-42.241C358.698,451.589,358.698,448.773,363.395,445.957z M380.291,381.187
			h61.954c10.318,0,15.016,4.697,14.081,14.081v22.528c0.935,10.329-3.762,15.026-14.081,14.081h-61.954
			c-9.394,0.946-14.08-3.751-14.08-14.081v-22.528C366.211,385.884,370.897,381.187,380.291,381.187z M439.429,389.635h-56.321
			c-5.632,0-8.448,2.816-8.448,8.448v16.896c0,6.578,2.816,9.394,8.448,8.448h56.321c6.567,0.946,9.383-1.87,8.448-8.448v-16.896
			C448.812,392.451,445.996,389.635,439.429,389.635z"/>
		<path stroke="#000000" stroke-width="2" stroke-miterlimit="10" d="M488.71,445.957h78.85c3.751,2.816,3.751,5.632,0,8.448
			h-33.793v61.954c17.832-4.686,31.438-8.91,40.833-12.672c4.686,1.881,5.632,4.697,2.816,8.448
			c-32.858,11.264-63.361,19.239-91.522,23.937c-4.697-0.946-5.632-3.762-2.816-8.448c17.832-2.816,31.912-6.105,42.241-9.856
			v-63.362H488.71C484.948,451.589,484.948,448.773,488.71,445.957z M583.048,381.187l1.408,28.161h53.506
			c3.751,2.816,3.751,5.632,0,8.448h-52.098c10.318,69.467,23.937,107.011,40.833,112.643c5.632,1.87,8.448-11.265,8.448-39.425
			c3.751-2.816,6.567-2.343,8.448,1.408c0.935,32.847-4.224,48.808-15.488,47.873c-22.528-0.946-39.425-41.768-50.689-122.499
			h-91.522c-3.762-2.816-3.762-5.632,0-8.448h90.114l-1.408-28.161C577.416,377.436,580.232,377.436,583.048,381.187z
			 M594.313,376.963c12.199,5.632,23.937,12.672,35.201,21.121c2.815,5.632,1.408,8.448-4.225,8.448
			c-12.21-8.448-23.937-15.488-35.2-21.121C588.207,380.725,589.615,377.909,594.313,376.963z"/>
		<path stroke="#000000" stroke-width="2" stroke-miterlimit="10" d="M661.898,406.532h66.178c3.751,2.816,3.751,5.632,0,8.448
			h-66.178C657.201,412.164,657.201,409.348,661.898,406.532z M681.61,474.117h29.569c11.264,0,16.423,5.17,15.488,15.489v30.977
			c0.935,11.264-4.225,16.423-15.488,15.488h-28.161c-10.329,0.935-15.488-4.224-15.488-15.488v-30.977
			C667.53,479.288,672.217,474.117,681.61,474.117z M671.755,451.589h50.688c3.752,2.816,3.752,5.632,0,8.448h-50.688
			C667.992,456.286,667.992,453.47,671.755,451.589z M671.755,429.06h50.688c2.816,2.816,2.816,5.632,0,8.448h-50.688
			C668.938,434.692,668.938,431.876,671.755,429.06z M709.771,482.565h-25.345c-5.632,0-8.448,2.816-8.448,8.448v26.753
			c0,7.502,3.278,10.791,9.856,9.856h23.937c6.567,0.935,9.383-1.881,8.448-8.448v-28.161
			C719.154,485.382,716.339,482.565,709.771,482.565z M687.243,375.555c6.566,6.579,12.199,13.146,16.896,19.713
			c0,6.578-2.354,8.448-7.041,5.632c-4.696-6.567-10.329-13.134-16.896-19.712C679.257,375.555,681.61,373.685,687.243,375.555z
			 M737.932,448.773h61.954c10.318,0,13.607,5.632,9.856,16.896c-5.633,14.081-14.554,27.699-26.753,40.833
			c12.199,11.265,25.807,20.175,40.833,26.753c2.816,4.686,1.408,7.04-4.224,7.04c-13.146-3.762-27.699-13.145-43.649-28.161
			c-14.08,13.134-28.634,22.529-43.649,28.161c-4.697,0-6.104-2.354-4.224-7.04c17.831-8.448,31.438-17.832,40.833-28.161
			c-12.211-14.081-20.659-30.031-25.345-47.874h-5.633C734.17,455.351,734.17,452.535,737.932,448.773z M761.869,378.371h22.528
			c10.318,0,15.016,4.697,14.08,14.08v30.977c0,6.578,2.816,9.394,8.448,8.448h9.856c4.686,2.816,4.686,5.632,0,8.448h-12.673
			c-9.394,0.946-14.08-4.224-14.08-15.489v-29.568c0.936-5.632-1.881-8.448-8.448-8.448h-16.896c-5.632,0-8.448,2.816-8.448,8.448
			v11.264c0.936,15.961-3.762,28.161-14.08,36.609c-5.632,1.881-7.986,0-7.04-5.632c9.383-7.502,13.607-17.832,12.672-30.977
			v-12.672C747.788,383.541,752.475,378.371,761.869,378.371z M797.069,457.221h-43.648c2.815,13.146,10.317,27.226,22.528,42.241
			c10.318-10.318,18.305-22.056,23.937-35.201C801.756,459.575,800.82,457.221,797.069,457.221z"/>
		<path stroke="#000000" stroke-width="2" stroke-miterlimit="10" d="M840.719,403.716h76.034c4.686,2.816,4.686,5.632,0,8.448
			h-76.034C836.957,409.348,836.957,406.532,840.719,403.716z M853.391,426.244h56.322c4.686,2.816,4.686,5.632,0,8.448h-56.322
			C848.694,431.876,848.694,429.06,853.391,426.244z M853.391,448.773h56.322c4.686,2.816,4.686,5.632,0,8.448h-56.322
			C848.694,454.405,848.694,451.589,853.391,448.773z M866.063,471.301h28.16c11.265,0,16.424,5.632,15.489,16.896v35.201
			c0.935,9.383-4.225,13.607-15.489,12.672h-28.16c-10.329,0.935-15.488-3.762-15.488-14.08V486.79
			C850.575,476.471,855.734,471.301,866.063,471.301z M891.408,479.75h-23.937c-5.633,0-8.448,2.816-8.448,8.448v30.977
			c0,6.567,2.815,9.383,8.448,8.448h25.345c6.566,0.935,9.383-0.946,8.448-5.632v-33.793
			C902.199,482.565,898.91,479.75,891.408,479.75z M867.472,375.555c8.448,6.579,16.423,13.146,23.937,19.713
			c1.87,5.632,0,7.513-5.633,5.632c-9.394-6.567-17.842-13.134-25.344-19.712C859.485,375.555,861.839,373.685,867.472,375.555z
			 M957.586,378.371c2.815-4.686,5.632-4.686,8.448,0v56.321h38.017c3.751,2.816,3.751,5.632,0,8.448h-38.017v94.338
			c-2.816,4.686-5.633,4.686-8.448,0v-94.338h-40.833c-4.697-2.816-4.697-5.632,0-8.448h40.833V378.371z"/>
	</g>
</g>
<g id="運算思維">
	<g id="XMLID_1_">
		<g>
			<path fill="#036EB8" d="M943.979,85.132c5.299,15.86,0,46.21-1.298,63.404c-1.333,34.316,5.552,54.898-1.045,86.582
				c-3.965,17.158-7.895,33.234-22.421,45.129c-18.167,14.887-40.154,16.581-64.089,16.581c-87.771,0-168.478,2.631-251.671,0
				c-44.877-1.333-96.495,0.901-141.407-1.73c-30.351-1.334-84.491-11.895-113.544-1.334c-5.443,1.803-7.75,4.866-8.939,8.579
				l-0.613-0.216c3.136-9.264,5.227-15.788,13.445-18.816c28.295-10.561,68.919-2.487,98.945-0.973c30.855,1.55,65.711,0,94.944,0
				c42.101,0,77.966,1.333,120.392,1.333c35.073,0,70.109-0.072,105.146,0c36.875,0.072,80.778,4.47,116.247-1.333
				c13.733-2.235,22.205-10.273,31.072-22.204c8.831-11.787,15.644-39.182,12.615-61.458c-7.281-53.924,14.202-84.852,0.901-132.215
				C937.96,72.66,942.105,79.076,943.979,85.132z"/>
			<path fill="#2EA7E0" d="M932.661,66.46c13.301,47.364-8.183,78.291-0.901,132.215c3.028,22.276-3.784,49.671-12.615,61.458
				c-8.867,11.931-17.339,19.969-31.072,22.204c-35.469,5.803-79.372,1.406-116.247,1.333c-35.036-0.072-70.072,0-105.146,0
				c-42.426,0-78.291-1.333-120.392-1.333c-29.233,0-64.089,1.55-94.944,0c-30.026-1.514-70.65-9.588-98.945,0.973
				c-8.219,3.028-10.309,9.552-13.445,18.816c-1.622,4.686-3.46,10.129-6.524,16.148c-6.668,13.157-35.865,13.842-49.707,12.003
				c-32.874-4.434-44.588,0.18-72.091,6.38l-0.036,0.036c-2.054-1.838-4.001-4.217-5.983-7.281
				c-6.741-9.552-11.102-16.004-16.221-20.149c-11.931-17.699-39.686-18.6-59.619-18.96c-18.6-0.325-59.151,7.065-71.983-7.966
				l-0.072,0.036c-17.807-23.105-15.86-47.833-15.86-78.399c0-30.351,2.595-34.712-0.036-65.063
				c-3.965-36.983-7.858-89.429,29.089-105.253c34.027-9.732,45.922-9.732,68.343-9.732c14.563,0,39.938,4.434,51.833,9.732
				c18.456,6.596,15.824,26.385,31.684,36.947c11.859,7.93,44.877,5.299,58.106,5.299c18.455,0,34.496,1.442,50.319-9.12
				c17.194-10.562,18.312-29.161,35.469-37.091c14.526-6.597,42.282-1.334,58.105-1.334c25.088,0,50.176,0,75.264,0
				c91.124,0,182.21-1.297,273.334-1.297c35.649,0,99.018-11.895,128.07,10.561C909.809,44.437,923.073,55.106,932.661,66.46z"/>
			<path fill="#036EB8" d="M338.953,302.127l0.613,0.216c-2.271,7.137-0.396,16.617-8.218,24.439
				c-19.789,18.492-35.613,10.814-73.93,13.013c-24.223,1.37-36.515,6.091-46.824-3.1l0.036-0.036
				c27.503-6.2,39.218-10.813,72.091-6.38c13.842,1.838,43.039,1.153,49.707-12.003
				C335.492,312.256,337.331,306.813,338.953,302.127z"/>
			<path fill="#036EB8" d="M128.771,290.304c19.933,0.36,47.688,1.261,59.619,18.96c-6.92-5.587-15.211-7.029-32.657-6.272
				c-27.719,1.333-66,11.895-88.456-9.228c-4.146-3.749-7.642-7.569-10.562-11.39l0.072-0.036
				C69.619,297.369,110.171,289.979,128.771,290.304z"/>
		</g>
		<g>
		</g>
	</g>
	<g>
		<path fill="#FFFFFF" stroke="#FFFFFF" stroke-width="10" stroke-miterlimit="10" d="M274.688,243.352
			c3.751,2.816,3.751,5.632,0,8.448h-70.402c-18.777,0.935-37.082-6.578-54.913-22.528c-4.697,9.383-13.619,16.423-26.753,21.121
			c-3.762-0.946-5.17-3.762-4.224-8.448c15.951-6.578,24.872-14.081,26.753-22.529V172.95c0.935-5.632-1.881-8.448-8.448-8.448
			h-14.081c-3.762-2.816-3.762-5.632,0-8.448h16.896c11.264,0,15.951,5.632,14.081,16.896v47.873
			c16.896,15.95,33.32,23.463,49.281,22.529H274.688z M138.109,89.876c6.567,12.21,12.672,23.475,18.305,33.793
			c0,4.697-2.354,6.578-7.04,5.632c-6.578-11.264-13.146-22.99-19.712-35.201C129.661,88.468,132.477,87.06,138.109,89.876z
			 M214.143,237.72v-15.488h-49.281c-3.762-2.816-3.762-5.632,0-8.448h49.281v-14.081h-28.161
			c-10.33,0.946-15.488-4.224-15.488-15.488v-28.161c0-10.318,5.159-15.488,15.488-15.488h28.161v-14.081h-35.201
			c-3.762-2.816-3.762-5.632,0-8.448h35.201v-8.448c2.816-3.751,5.632-3.751,8.448,0v8.448h32.385c4.686,2.816,4.686,5.632,0,8.448
			h-32.385v14.081h26.752c13.134,0,18.767,5.17,16.896,15.488v28.161c0.935,11.264-4.697,16.435-16.896,15.488h-26.752v14.081
			h49.281c3.751,2.816,3.751,5.632,0,8.448h-49.281v15.488C219.775,240.536,216.959,240.536,214.143,237.72z M178.942,95.508h77.442
			c15.015,0,19.712,11.264,14.08,33.792c-3.762,3.762-6.578,2.816-8.448-2.816c4.686-15.015,2.816-22.528-5.632-22.528h-74.626
			c-5.632,0-8.448,2.816-8.448,8.448v16.896c-2.816,3.762-5.632,3.762-8.448,0v-19.712
			C164.862,100.205,169.548,95.508,178.942,95.508z M214.143,149.014H187.39c-5.632,0-8.448,2.816-8.448,8.448v8.448h35.201V149.014
			z M214.143,174.358h-35.201v8.448c0,6.578,2.816,9.395,8.448,8.448h26.753V174.358z M249.344,149.014h-26.752v16.896h35.201
			v-8.448C258.727,151.83,255.911,149.014,249.344,149.014z M257.792,174.358h-35.201v16.896h25.345
			c7.502,0.946,10.791-1.87,9.856-8.448V174.358z"/>
		<path fill="#FFFFFF" stroke="#FFFFFF" stroke-width="10" stroke-miterlimit="10" d="M331.01,130.709h101.379
			c10.318,0,15.015,4.697,14.08,14.081v39.425c0.935,10.329-3.762,15.026-14.08,14.081h-14.081v16.896h42.241
			c3.751,2.816,3.751,5.632,0,8.448h-42.241V251.8c-2.816,3.751-5.632,3.751-8.448,0v-28.161h-56.321
			c-3.762,15.016-15.026,25.345-33.793,30.977c-4.697-0.946-5.632-3.762-2.816-8.448c14.08-3.762,23.463-11.264,28.161-22.529
			h-45.057c-3.762-2.816-3.762-5.632,0-8.448h46.465l1.408-16.896H331.01c-9.394,0.946-14.08-3.751-14.08-14.081V144.79
			C317.865,135.406,322.562,130.709,331.01,130.709z M331.01,88.468c4.687-2.816,7.041-1.408,7.041,4.224l-7.041,9.856h45.057
			c3.751,2.816,3.751,5.632,0,8.448h-25.344c1.87,3.762,3.278,7.986,4.224,12.672c-1.881,4.697-4.697,5.17-8.448,1.408
			c-0.946-4.686-2.354-9.383-4.224-14.08h-15.489c-6.578,8.448-12.672,15.026-18.304,19.712c-5.632,1.881-7.986,0-7.04-5.632
			C311.759,115.694,321.616,103.494,331.01,88.468z M429.572,139.157h-95.746c-5.632,0-8.448,2.816-8.448,8.448v2.816h112.643
			C438.956,142.919,436.14,139.157,429.572,139.157z M438.021,158.87H325.378v11.264h112.643V158.87z M325.378,178.582v2.816
			c0,6.578,2.816,9.394,8.448,8.448h95.746c6.567,0.946,9.383-2.816,8.448-11.265H325.378z M409.86,215.191v-16.896h-53.505
			l-1.408,16.896H409.86z M398.596,88.468c4.686-3.751,7.502-2.816,8.448,2.816l-5.632,11.264h56.321
			c3.751,2.816,3.751,5.632,0,8.448h-29.568c3.751,4.697,6.094,9.394,7.04,14.08c-1.881,4.697-4.697,5.17-8.448,1.408
			c-1.881-4.686-4.697-9.856-8.448-15.488h-21.121c-3.762,5.632-7.986,10.802-12.672,15.488c-5.632,1.881-7.986,0.473-7.04-4.224
			C387.793,110.997,394.833,99.732,398.596,88.468z"/>
		<path fill="#FFFFFF" stroke="#FFFFFF" stroke-width="10" stroke-miterlimit="10" d="M505.606,188.438
			c-3.762,21.594-10.802,40.833-21.121,57.729c-5.632,1.87-7.986,0-7.04-5.632c9.383-16.896,15.488-34.728,18.304-53.505
			C499.501,183.279,502.79,183.752,505.606,188.438z M508.422,89.876h104.195c10.318,0,15.016,4.697,14.08,14.081v53.505
			c0.936,10.329-3.762,15.026-14.08,14.08H508.422c-9.394,0.946-14.081-3.751-14.081-14.08v-53.505
			C494.342,94.573,499.028,89.876,508.422,89.876z M556.295,98.324h-45.057c-5.632,0-8.448,2.816-8.448,8.448v19.712h53.505V98.324z
			 M556.295,134.933H502.79v19.712c0,6.578,2.816,9.395,8.448,8.448h45.057V134.933z M530.951,182.806v50.689
			c0,8.448,3.751,12.199,11.264,11.264h49.281c8.448,1.87,12.673-7.513,12.673-28.161c2.815-3.751,5.632-3.751,8.448,0
			c0,26.28-7.04,38.479-21.121,36.609h-52.097c-10.329,1.87-15.961-3.762-16.896-16.896v-53.505
			C525.319,179.055,528.135,179.055,530.951,182.806z M560.52,179.99c11.265,15.026,20.175,29.107,26.753,42.241
			c0,5.632-2.816,7.04-8.448,4.224c-7.513-14.081-15.961-27.688-25.345-40.833C553.479,180.937,555.823,179.055,560.52,179.99z
			 M609.801,98.324h-45.057v28.161h53.505v-19.712C619.185,101.14,616.368,98.324,609.801,98.324z M618.249,134.933h-53.505v28.161
			h45.057c6.567,0.946,9.384-1.87,8.448-8.448V134.933z M619.657,185.623c9.383,16.896,17.831,34.739,25.345,53.505
			c0,5.632-2.354,7.04-7.04,4.224c-8.448-18.767-17.37-36.609-26.753-53.505C612.144,184.214,614.96,182.806,619.657,185.623z"/>
		<path fill="#FFFFFF" stroke="#FFFFFF" stroke-width="10" stroke-miterlimit="10" d="M673.162,196.887
			c2.816-3.751,5.633-3.278,8.448,1.408c-1.881,19.712-5.17,35.663-9.855,47.873c-3.763,3.751-6.578,3.278-8.448-1.408
			C667.992,230.68,671.281,214.729,673.162,196.887z M692.875,91.284c4.687-2.816,7.04-1.408,7.04,4.224
			c-6.578,13.145-14.553,25.817-23.937,38.017l25.345-2.816c4.687-7.502,8.448-15.015,11.265-22.528
			c4.686-2.816,7.502-1.408,8.448,4.224c-11.265,24.409-24.41,45.53-39.426,63.361c14.081-1.87,24.399-3.751,30.978-5.632
			l-7.041-12.672c0-5.632,2.344-7.502,7.041-5.632c7.502,12.21,13.134,23.001,16.896,32.385c-0.946,4.697-3.763,5.632-8.448,2.816
			c-0.946-2.816-2.354-5.632-4.225-8.448c-18.777,3.762-34.266,6.105-46.465,7.041c-5.633,0-6.578-2.816-2.816-8.448
			c8.448-7.502,18.305-20.175,29.568-38.017l-26.752,2.816c-5.633,0-7.514-2.816-5.633-8.448
			C675.032,121.326,684.427,107.246,692.875,91.284z M691.467,195.479c1.87-4.686,4.687-5.159,8.448-1.408
			c2.816,16.896,4.687,30.977,5.632,42.241c-1.881,5.632-4.696,6.094-8.448,1.408C696.153,228.336,694.283,214.256,691.467,195.479z
			 M718.22,188.438c4.686,15.026,7.976,27.699,9.856,38.017c-1.881,5.632-4.697,6.567-8.448,2.816
			c-1.881-10.318-5.17-22.991-9.856-38.017C710.706,186.568,713.522,185.623,718.22,188.438z M759.053,91.284
			c-3.762,10.329-7.514,19.25-11.265,26.752h30.977c-1.881-7.502-4.696-15.488-8.447-23.937c0.935-4.686,3.751-5.632,8.447-2.816
			c3.752,8.448,7.041,17.369,9.856,26.752h28.161c2.816,2.816,2.816,5.632,0,8.448h-29.569v28.161h25.345
			c3.751,2.816,3.751,5.632,0,8.448h-25.345v32.385h25.345c3.751,2.816,3.751,5.632,0,8.448h-25.345v29.569h35.201
			c2.816,2.816,2.816,5.632,0,8.448h-74.626v8.448c-2.815,3.751-5.632,3.751-8.448,0V134.933c-3.762,6.578-7.04,11.737-9.855,15.488
			c-3.763,1.881-6.105,0.473-7.041-4.224c11.265-17.831,20.647-36.609,28.161-56.321C754.355,86.125,757.172,86.598,759.053,91.284z
			 M778.765,126.485h-30.977v28.161h30.977V126.485z M778.765,163.094h-30.977v32.385h30.977V163.094z M778.765,203.927h-30.977
			v29.569h30.977V203.927z"/>
	</g>
	<g>
		<path stroke="#000000" stroke-width="2" stroke-miterlimit="10" d="M274.688,243.352c3.751,2.816,3.751,5.632,0,8.448h-70.402
			c-18.777,0.935-37.082-6.578-54.913-22.528c-4.697,9.383-13.619,16.423-26.753,21.121c-3.762-0.946-5.17-3.762-4.224-8.448
			c15.951-6.578,24.872-14.081,26.753-22.529V172.95c0.935-5.632-1.881-8.448-8.448-8.448h-14.081c-3.762-2.816-3.762-5.632,0-8.448
			h16.896c11.264,0,15.951,5.632,14.081,16.896v47.873c16.896,15.95,33.32,23.463,49.281,22.529H274.688z M138.109,89.876
			c6.567,12.21,12.672,23.475,18.305,33.793c0,4.697-2.354,6.578-7.04,5.632c-6.578-11.264-13.146-22.99-19.712-35.201
			C129.661,88.468,132.477,87.06,138.109,89.876z M214.143,237.72v-15.488h-49.281c-3.762-2.816-3.762-5.632,0-8.448h49.281v-14.081
			h-28.161c-10.33,0.946-15.488-4.224-15.488-15.488v-28.161c0-10.318,5.159-15.488,15.488-15.488h28.161v-14.081h-35.201
			c-3.762-2.816-3.762-5.632,0-8.448h35.201v-8.448c2.816-3.751,5.632-3.751,8.448,0v8.448h32.385c4.686,2.816,4.686,5.632,0,8.448
			h-32.385v14.081h26.752c13.134,0,18.767,5.17,16.896,15.488v28.161c0.935,11.264-4.697,16.435-16.896,15.488h-26.752v14.081
			h49.281c3.751,2.816,3.751,5.632,0,8.448h-49.281v15.488C219.775,240.536,216.959,240.536,214.143,237.72z M178.942,95.508h77.442
			c15.015,0,19.712,11.264,14.08,33.792c-3.762,3.762-6.578,2.816-8.448-2.816c4.686-15.015,2.816-22.528-5.632-22.528h-74.626
			c-5.632,0-8.448,2.816-8.448,8.448v16.896c-2.816,3.762-5.632,3.762-8.448,0v-19.712
			C164.862,100.205,169.548,95.508,178.942,95.508z M214.143,149.014H187.39c-5.632,0-8.448,2.816-8.448,8.448v8.448h35.201V149.014
			z M214.143,174.358h-35.201v8.448c0,6.578,2.816,9.395,8.448,8.448h26.753V174.358z M249.344,149.014h-26.752v16.896h35.201
			v-8.448C258.727,151.83,255.911,149.014,249.344,149.014z M257.792,174.358h-35.201v16.896h25.345
			c7.502,0.946,10.791-1.87,9.856-8.448V174.358z"/>
		<path stroke="#000000" stroke-width="2" stroke-miterlimit="10" d="M331.01,130.709h101.379c10.318,0,15.015,4.697,14.08,14.081
			v39.425c0.935,10.329-3.762,15.026-14.08,14.081h-14.081v16.896h42.241c3.751,2.816,3.751,5.632,0,8.448h-42.241V251.8
			c-2.816,3.751-5.632,3.751-8.448,0v-28.161h-56.321c-3.762,15.016-15.026,25.345-33.793,30.977
			c-4.697-0.946-5.632-3.762-2.816-8.448c14.08-3.762,23.463-11.264,28.161-22.529h-45.057c-3.762-2.816-3.762-5.632,0-8.448h46.465
			l1.408-16.896H331.01c-9.394,0.946-14.08-3.751-14.08-14.081V144.79C317.865,135.406,322.562,130.709,331.01,130.709z
			 M331.01,88.468c4.687-2.816,7.041-1.408,7.041,4.224l-7.041,9.856h45.057c3.751,2.816,3.751,5.632,0,8.448h-25.344
			c1.87,3.762,3.278,7.986,4.224,12.672c-1.881,4.697-4.697,5.17-8.448,1.408c-0.946-4.686-2.354-9.383-4.224-14.08h-15.489
			c-6.578,8.448-12.672,15.026-18.304,19.712c-5.632,1.881-7.986,0-7.04-5.632C311.759,115.694,321.616,103.494,331.01,88.468z
			 M429.572,139.157h-95.746c-5.632,0-8.448,2.816-8.448,8.448v2.816h112.643C438.956,142.919,436.14,139.157,429.572,139.157z
			 M438.021,158.87H325.378v11.264h112.643V158.87z M325.378,178.582v2.816c0,6.578,2.816,9.394,8.448,8.448h95.746
			c6.567,0.946,9.383-2.816,8.448-11.265H325.378z M409.86,215.191v-16.896h-53.505l-1.408,16.896H409.86z M398.596,88.468
			c4.686-3.751,7.502-2.816,8.448,2.816l-5.632,11.264h56.321c3.751,2.816,3.751,5.632,0,8.448h-29.568
			c3.751,4.697,6.094,9.394,7.04,14.08c-1.881,4.697-4.697,5.17-8.448,1.408c-1.881-4.686-4.697-9.856-8.448-15.488h-21.121
			c-3.762,5.632-7.986,10.802-12.672,15.488c-5.632,1.881-7.986,0.473-7.04-4.224C387.793,110.997,394.833,99.732,398.596,88.468z"
			/>
		<path stroke="#000000" stroke-width="2" stroke-miterlimit="10" d="M505.606,188.438c-3.762,21.594-10.802,40.833-21.121,57.729
			c-5.632,1.87-7.986,0-7.04-5.632c9.383-16.896,15.488-34.728,18.304-53.505C499.501,183.279,502.79,183.752,505.606,188.438z
			 M508.422,89.876h104.195c10.318,0,15.016,4.697,14.08,14.081v53.505c0.936,10.329-3.762,15.026-14.08,14.08H508.422
			c-9.394,0.946-14.081-3.751-14.081-14.08v-53.505C494.342,94.573,499.028,89.876,508.422,89.876z M556.295,98.324h-45.057
			c-5.632,0-8.448,2.816-8.448,8.448v19.712h53.505V98.324z M556.295,134.933H502.79v19.712c0,6.578,2.816,9.395,8.448,8.448h45.057
			V134.933z M530.951,182.806v50.689c0,8.448,3.751,12.199,11.264,11.264h49.281c8.448,1.87,12.673-7.513,12.673-28.161
			c2.815-3.751,5.632-3.751,8.448,0c0,26.28-7.04,38.479-21.121,36.609h-52.097c-10.329,1.87-15.961-3.762-16.896-16.896v-53.505
			C525.319,179.055,528.135,179.055,530.951,182.806z M560.52,179.99c11.265,15.026,20.175,29.107,26.753,42.241
			c0,5.632-2.816,7.04-8.448,4.224c-7.513-14.081-15.961-27.688-25.345-40.833C553.479,180.937,555.823,179.055,560.52,179.99z
			 M609.801,98.324h-45.057v28.161h53.505v-19.712C619.185,101.14,616.368,98.324,609.801,98.324z M618.249,134.933h-53.505v28.161
			h45.057c6.567,0.946,9.384-1.87,8.448-8.448V134.933z M619.657,185.623c9.383,16.896,17.831,34.739,25.345,53.505
			c0,5.632-2.354,7.04-7.04,4.224c-8.448-18.767-17.37-36.609-26.753-53.505C612.144,184.214,614.96,182.806,619.657,185.623z"/>
		<path stroke="#000000" stroke-width="2" stroke-miterlimit="10" d="M673.162,196.887c2.816-3.751,5.633-3.278,8.448,1.408
			c-1.881,19.712-5.17,35.663-9.855,47.873c-3.763,3.751-6.578,3.278-8.448-1.408C667.992,230.68,671.281,214.729,673.162,196.887z
			 M692.875,91.284c4.687-2.816,7.04-1.408,7.04,4.224c-6.578,13.145-14.553,25.817-23.937,38.017l25.345-2.816
			c4.687-7.502,8.448-15.015,11.265-22.528c4.686-2.816,7.502-1.408,8.448,4.224c-11.265,24.409-24.41,45.53-39.426,63.361
			c14.081-1.87,24.399-3.751,30.978-5.632l-7.041-12.672c0-5.632,2.344-7.502,7.041-5.632c7.502,12.21,13.134,23.001,16.896,32.385
			c-0.946,4.697-3.763,5.632-8.448,2.816c-0.946-2.816-2.354-5.632-4.225-8.448c-18.777,3.762-34.266,6.105-46.465,7.041
			c-5.633,0-6.578-2.816-2.816-8.448c8.448-7.502,18.305-20.175,29.568-38.017l-26.752,2.816c-5.633,0-7.514-2.816-5.633-8.448
			C675.032,121.326,684.427,107.246,692.875,91.284z M691.467,195.479c1.87-4.686,4.687-5.159,8.448-1.408
			c2.816,16.896,4.687,30.977,5.632,42.241c-1.881,5.632-4.696,6.094-8.448,1.408C696.153,228.336,694.283,214.256,691.467,195.479z
			 M718.22,188.438c4.686,15.026,7.976,27.699,9.856,38.017c-1.881,5.632-4.697,6.567-8.448,2.816
			c-1.881-10.318-5.17-22.991-9.856-38.017C710.706,186.568,713.522,185.623,718.22,188.438z M759.053,91.284
			c-3.762,10.329-7.514,19.25-11.265,26.752h30.977c-1.881-7.502-4.696-15.488-8.447-23.937c0.935-4.686,3.751-5.632,8.447-2.816
			c3.752,8.448,7.041,17.369,9.856,26.752h28.161c2.816,2.816,2.816,5.632,0,8.448h-29.569v28.161h25.345
			c3.751,2.816,3.751,5.632,0,8.448h-25.345v32.385h25.345c3.751,2.816,3.751,5.632,0,8.448h-25.345v29.569h35.201
			c2.816,2.816,2.816,5.632,0,8.448h-74.626v8.448c-2.815,3.751-5.632,3.751-8.448,0V134.933c-3.762,6.578-7.04,11.737-9.855,15.488
			c-3.763,1.881-6.105,0.473-7.041-4.224c11.265-17.831,20.647-36.609,28.161-56.321C754.355,86.125,757.172,86.598,759.053,91.284z
			 M778.765,126.485h-30.977v28.161h30.977V126.485z M778.765,163.094h-30.977v32.385h30.977V163.094z M778.765,203.927h-30.977
			v29.569h30.977V203.927z"/>
	</g>
</g>
<g id="CT_x2B_X">
</g>
</svg>
