<?xml version="1.0" encoding="utf-8"?>
<!-- Generator: Adobe Illustrator 16.0.0, SVG Export Plug-In . SVG Version: 6.00 Build 0)  -->
<!DOCTYPE svg PUBLIC "-//W3C//DTD SVG 1.1//EN" "http://www.w3.org/Graphics/SVG/1.1/DTD/svg11.dtd">
<svg version="1.1" xmlns="http://www.w3.org/2000/svg" xmlns:xlink="http://www.w3.org/1999/xlink" x="0px" y="0px" width="1084px"
	 height="646.174px" viewBox="0 0 1084 646.174" enable-background="new 0 0 1084 646.174" xml:space="preserve">
<g id="圖層_1">
</g>
<g id="程式設計">
</g>
<g id="運算思維">
</g>
<g id="CT_x2B_X">
	<g id="XMLID_2_">
		<g>
			<path fill="#D9A524" d="M962.414,135.768c5.299,15.86,0,46.211-1.298,63.404c-1.334,34.315,5.551,54.897-1.046,86.582
				c-3.965,17.157-7.894,33.233-22.42,45.129c-18.167,14.887-40.155,16.581-64.089,16.581c-87.771,0-168.478,2.631-251.672,0
				c-44.876-1.334-96.494,0.901-141.407-1.73c-30.351-1.333-84.491-11.895-113.544-1.333c-4.938,1.657-7.317,4.325-8.579,7.605
				l-0.648-0.217c2.956-8.759,5.19-14.923,13.121-17.843c28.296-10.561,68.919-2.486,98.945-0.973c30.855,1.55,65.711,0,94.944,0
				c42.102,0,77.967,1.334,120.393,1.334c35.072,0,70.108-0.072,105.146,0c36.874,0.071,80.778,4.469,116.247-1.334
				c13.733-2.235,22.204-10.273,31.071-22.204c8.831-11.787,15.644-39.182,12.616-61.458c-7.281-53.925,14.202-84.852,0.901-132.216
				C956.395,123.296,960.539,129.712,962.414,135.768z"/>
			<path fill="#F8B62D" d="M951.096,117.096c13.301,47.364-8.183,78.291-0.901,132.216c3.027,22.276-3.785,49.671-12.616,61.458
				c-8.867,11.931-17.338,19.969-31.071,22.204c-35.469,5.803-79.373,1.405-116.247,1.334c-35.037-0.072-70.073,0-105.146,0
				c-42.426,0-78.291-1.334-120.393-1.334c-29.233,0-64.089,1.55-94.944,0c-30.026-1.514-70.649-9.588-98.945,0.973
				c-7.93,2.92-10.165,9.084-13.121,17.843c-1.694,4.902-3.569,10.67-6.849,17.122c-6.668,13.156-35.865,13.842-49.707,12.003
				c-32.874-4.434-44.589,0.181-72.092,6.38l-0.036,0.036c-2.055-1.838-4.001-4.217-5.984-7.281
				c-6.74-9.552-11.102-16.004-16.221-20.149c-11.931-17.698-39.686-18.6-59.619-18.96c-18.6-0.324-59.151,7.065-71.983-7.966
				l-0.072,0.036c-17.807-23.105-15.86-47.833-15.86-78.399c0-30.351,2.595-34.712-0.036-65.063
				c-3.965-36.983-7.858-89.43,29.089-105.253c34.027-9.732,45.922-9.732,68.343-9.732c14.563,0,39.938,4.434,51.833,9.732
				c18.456,6.596,15.824,26.385,31.684,36.947c11.859,7.93,44.877,5.299,58.106,5.299c18.455,0,34.496,1.441,50.32-9.12
				c17.193-10.562,18.311-29.161,35.469-37.091c14.526-6.596,42.282-1.333,58.105-1.333c25.088,0,50.176,0,75.264,0
				c91.123,0,182.211-1.298,273.334-1.298c35.649,0,99.018-11.895,128.07,10.562C928.242,95.072,941.507,105.742,951.096,117.096z"
				/>
			<path fill="#D9A524" d="M357.711,351.789l0.648,0.217c-2.848,7.173-0.396,17.229-8.579,25.412
				c-19.789,18.491-35.613,10.813-73.93,13.013c-24.223,1.369-36.514,6.092-46.823-3.101l0.036-0.036
				c27.503-6.199,39.218-10.813,72.092-6.38c13.841,1.839,43.038,1.153,49.707-12.003
				C354.143,362.459,356.017,356.691,357.711,351.789z"/>
			<path fill="#D9A524" d="M147.205,340.939c19.933,0.36,47.688,1.262,59.619,18.96c-6.92-5.587-15.211-7.028-32.657-6.271
				c-27.719,1.333-66,11.895-88.456-9.228c-4.146-3.749-7.642-7.57-10.562-11.391l0.072-0.036
				C88.053,348.005,128.605,340.615,147.205,340.939z"/>
		</g>
		<g>
		</g>
	</g>
	<g>
		<path stroke="#FFFFFF" stroke-width="20" stroke-miterlimit="10" d="M232.822,173.904l2.728,40.568h-2.728
			c-3.639-12.144-8.831-20.885-15.577-26.225c-6.747-5.338-14.843-8.008-24.289-8.008c-7.92,0-15.079,2.011-21.473,6.028
			c-6.395,4.02-11.426,10.428-15.092,19.229c-3.667,8.8-5.5,19.742-5.5,32.824c0,10.796,1.73,20.153,5.192,28.073
			c3.461,7.92,8.668,13.992,15.621,18.217c6.952,4.224,14.886,6.336,23.805,6.336c7.744,0,14.578-1.657,20.504-4.973
			c5.925-3.313,12.437-9.9,19.537-19.756l2.728,1.76c-5.984,10.619-12.967,18.393-20.944,23.32
			c-7.979,4.929-17.455,7.393-28.425,7.393c-19.772,0-35.084-7.333-45.938-22.001c-8.096-10.912-12.144-23.761-12.144-38.545
			c0-11.909,2.669-22.851,8.008-32.824c5.338-9.974,12.686-17.702,22.044-23.189c9.357-5.484,19.581-8.228,30.669-8.228
			c8.624,0,17.13,2.112,25.521,6.336c2.464,1.291,4.224,1.937,5.28,1.937c1.584,0,2.961-0.558,4.136-1.673
			c1.525-1.584,2.61-3.784,3.256-6.6H232.822z"/>
		<path stroke="#FFFFFF" stroke-width="20" stroke-miterlimit="10" d="M348.809,176.632l1.32,27.985h-3.344
			c-0.646-4.929-1.526-8.448-2.64-10.561c-1.819-3.402-4.239-5.91-7.26-7.524c-3.022-1.612-6.996-2.42-11.924-2.42h-16.809v91.17
			c0,7.335,0.792,11.911,2.376,13.729c2.229,2.464,5.661,3.696,10.296,3.696h4.136v3.256h-50.602v-3.256h4.224
			c5.045,0,8.625-1.524,10.736-4.576c1.29-1.877,1.936-6.16,1.936-12.849v-91.17h-14.344c-5.574,0-9.535,0.411-11.88,1.232
			c-3.051,1.115-5.662,3.256-7.832,6.424c-2.171,3.168-3.462,7.451-3.872,12.849h-3.344l1.408-27.985H348.809z"/>
	</g>
	<g>
		<path stroke="#000000" stroke-width="6" stroke-miterlimit="10" d="M233.204,171.692l2.728,40.568h-2.728
			c-3.639-12.144-8.831-20.885-15.577-26.225c-6.747-5.338-14.843-8.008-24.289-8.008c-7.92,0-15.079,2.011-21.473,6.028
			c-6.395,4.02-11.426,10.428-15.092,19.229c-3.667,8.8-5.5,19.742-5.5,32.824c0,10.796,1.73,20.153,5.192,28.073
			c3.461,7.92,8.668,13.992,15.621,18.217c6.952,4.224,14.886,6.336,23.805,6.336c7.744,0,14.578-1.657,20.504-4.973
			c5.925-3.313,12.437-9.9,19.537-19.756l2.728,1.76c-5.984,10.619-12.967,18.393-20.944,23.32
			c-7.979,4.929-17.455,7.393-28.425,7.393c-19.772,0-35.084-7.333-45.938-22.001c-8.096-10.912-12.144-23.761-12.144-38.545
			c0-11.909,2.669-22.851,8.008-32.824c5.338-9.974,12.686-17.702,22.044-23.189c9.357-5.484,19.581-8.228,30.669-8.228
			c8.624,0,17.13,2.112,25.521,6.336c2.464,1.291,4.224,1.937,5.28,1.937c1.584,0,2.961-0.558,4.136-1.673
			c1.525-1.584,2.61-3.784,3.256-6.6H233.204z"/>
		<path stroke="#000000" stroke-width="6" stroke-miterlimit="10" d="M349.191,174.42l1.32,27.985h-3.344
			c-0.646-4.929-1.526-8.448-2.64-10.561c-1.819-3.402-4.239-5.91-7.26-7.524c-3.022-1.612-6.996-2.42-11.924-2.42h-16.809v91.17
			c0,7.335,0.792,11.911,2.376,13.729c2.229,2.464,5.661,3.696,10.296,3.696h4.136v3.256h-50.602v-3.256h4.224
			c5.045,0,8.625-1.524,10.736-4.576c1.29-1.877,1.936-6.16,1.936-12.849V181.9h-14.344c-5.574,0-9.535,0.411-11.88,1.232
			c-3.051,1.115-5.662,3.256-7.832,6.424c-2.171,3.168-3.462,7.451-3.872,12.849h-3.344l1.408-27.985H349.191z"/>
	</g>
	<g id="XMLID_4_">
		<g>
			<path fill="#00913A" d="M927.976,222.49c3.055,3.086,6.1,6.234,9.133,9.457c-45.946,27.283-83.69,62.768-121.351,85.782
				c-106.706,0-213.411,0-320.117,0c-7.218-5.366-14.311-10.336-21.362-15.064c61.377,0,122.743,0,184.109,0
				c36.008,0,75.98,4.781,110.514,1.747c15.431-1.349,40.747-1.339,46.856-4.487c26.561-13.694,33.193-21.697,51.877-34.575
				c19.489-13.432,39.272-27.011,60.268-42.786L927.976,222.49z"/>
			<path fill="#5BAF32" d="M927.976,222.49l-0.073,0.073c-20.995,15.775-40.778,29.354-60.268,42.786
				c-18.684,12.878-25.316,20.881-51.877,34.575c-6.109,3.148-31.426,3.139-46.856,4.487c-34.533,3.034-74.506-1.747-110.514-1.747
				c-61.366,0-122.732,0-184.109,0c-32.691-21.979-64.692-39.24-106.266-70.718c40.705-34.271,94.779-71.566,127.628-98.336
				c112.982,0,225.964,0,338.947,0C865.124,166.083,897.23,191.409,927.976,222.49z"/>
		</g>
		<g>
		</g>
	</g>
	<g>
		<path stroke="#FFFFFF" stroke-width="20" stroke-miterlimit="10" d="M557.843,267.343V223.43h-43.825v-7.216h43.825v-43.737h7.041
			v43.737h44.001v7.216h-44.001v43.913H557.843z"/>
		<path stroke="#FFFFFF" stroke-width="20" stroke-miterlimit="10" d="M731.031,213.661l25.608,38.193
			c7.099,10.561,12.365,17.234,15.797,20.021c3.432,2.787,7.788,4.327,13.068,4.62v3.256h-51.218v-3.256
			c3.402-0.058,5.926-0.41,7.568-1.056c1.232-0.528,2.244-1.334,3.036-2.42c0.792-1.085,1.188-2.186,1.188-3.301
			c0-1.349-0.265-2.697-0.792-4.048c-0.411-0.997-2.024-3.578-4.841-7.744l-20.24-30.625l-24.992,32.033
			c-2.641,3.403-4.225,5.676-4.752,6.82c-0.528,1.144-0.792,2.332-0.792,3.563c0,1.879,0.792,3.433,2.376,4.664
			c1.584,1.232,4.604,1.937,9.063,2.112v3.256h-42.329v-3.256c2.992-0.293,5.573-0.909,7.745-1.848
			c3.637-1.525,7.098-3.578,10.384-6.16c3.285-2.581,7.04-6.541,11.265-11.881l28.16-35.553l-23.496-34.409
			c-6.396-9.328-11.823-15.444-16.28-18.348c-4.46-2.904-9.593-4.444-15.4-4.62v-3.257h55.177v3.257
			c-4.694,0.176-7.906,0.938-9.636,2.288c-1.731,1.35-2.597,2.846-2.597,4.487c0,2.172,1.408,5.34,4.225,9.505l18.305,27.368
			l21.208-26.841c2.464-3.168,3.974-5.338,4.532-6.512c0.557-1.173,0.836-2.376,0.836-3.608c0-1.231-0.352-2.316-1.056-3.256
			c-0.88-1.232-1.995-2.097-3.345-2.596c-1.35-0.498-4.136-0.777-8.36-0.836v-3.257h42.329v3.257
			c-3.344,0.176-6.071,0.703-8.184,1.584c-3.168,1.35-6.072,3.168-8.713,5.456c-2.64,2.288-6.366,6.512-11.176,12.672
			L731.031,213.661z"/>
	</g>
	<g>
		<path stroke="#000000" stroke-width="6" stroke-miterlimit="10" d="M557.843,267.343V223.43h-43.825v-7.216h43.825v-43.737h7.041
			v43.737h44.001v7.216h-44.001v43.913H557.843z"/>
		<path stroke="#000000" stroke-width="6" stroke-miterlimit="10" d="M731.031,213.661l25.608,38.193
			c7.099,10.561,12.365,17.234,15.797,20.021c3.432,2.787,7.788,4.327,13.068,4.62v3.256h-51.218v-3.256
			c3.402-0.058,5.926-0.41,7.568-1.056c1.232-0.528,2.244-1.334,3.036-2.42c0.792-1.085,1.188-2.186,1.188-3.301
			c0-1.349-0.265-2.697-0.792-4.048c-0.411-0.997-2.024-3.578-4.841-7.744l-20.24-30.625l-24.992,32.033
			c-2.641,3.403-4.225,5.676-4.752,6.82c-0.528,1.144-0.792,2.332-0.792,3.563c0,1.879,0.792,3.433,2.376,4.664
			c1.584,1.232,4.604,1.937,9.063,2.112v3.256h-42.329v-3.256c2.992-0.293,5.573-0.909,7.745-1.848
			c3.637-1.525,7.098-3.578,10.384-6.16c3.285-2.581,7.04-6.541,11.265-11.881l28.16-35.553l-23.496-34.409
			c-6.396-9.328-11.823-15.444-16.28-18.348c-4.46-2.904-9.593-4.444-15.4-4.62v-3.257h55.177v3.257
			c-4.694,0.176-7.906,0.938-9.636,2.288c-1.731,1.35-2.597,2.846-2.597,4.487c0,2.172,1.408,5.34,4.225,9.505l18.305,27.368
			l21.208-26.841c2.464-3.168,3.974-5.338,4.532-6.512c0.557-1.173,0.836-2.376,0.836-3.608c0-1.231-0.352-2.316-1.056-3.256
			c-0.88-1.232-1.995-2.097-3.345-2.596c-1.35-0.498-4.136-0.777-8.36-0.836v-3.257h42.329v3.257
			c-3.344,0.176-6.071,0.703-8.184,1.584c-3.168,1.35-6.072,3.168-8.713,5.456c-2.64,2.288-6.366,6.512-11.176,12.672
			L731.031,213.661z"/>
	</g>
</g>
</svg>
